<svg xmlns="http://www.w3.org/2000/svg" width="520" height="520" viewBox="0 0 520 520" fill="none"><metadata><rdf:RDF xmlns:rdf="http://www.w3.org/1999/02/22-rdf-syntax-ns#" xmlns:dc="http://purl.org/dc/elements/1.1/"><rdf:Description><dc:creator>RealFaviconGenerator</dc:creator><dc:source>https://realfavicongenerator.net</dc:source></rdf:Description></rdf:RDF></metadata><path d="M446 298.114C446 348.21 426.456 396.254 391.668 431.677C356.88 467.1 309.698 487 260.5 487C211.302 487 164.12 467.1 129.332 431.677C94.5437 396.254 75 348.21 75 298.114C75 250.718 94.9238 196.102 134.218 135.786C135.391 133.986 136.9 132.439 138.661 131.234C140.421 130.029 142.398 129.189 144.478 128.763C146.558 128.337 148.7 128.333 150.781 128.751C152.862 129.169 154.842 130.001 156.607 131.199L221.685 175.377L283.889 42.364C284.999 39.9909 286.651 37.9237 288.708 36.3359C290.765 34.7481 293.165 33.6861 295.709 33.2392C298.252 32.7923 300.864 32.9735 303.324 33.7675C305.785 34.5616 308.022 35.9454 309.848 37.8026C339.576 68.0198 373.52 104.677 399.883 147.425C430.915 197.746 446 247.037 446 298.114Z" fill="url(#paint0_linear_420_225)"></path><defs>
<linearGradient id="paint0_linear_420_225" x1="183.5" y1="197.401" x2="261.619" y2="486.698" gradientUnits="userSpaceOnUse">
<stop stop-color="#FF8D28"></stop>
<stop offset="1" stop-color="#FF0000"></stop>
</linearGradient>
</defs></svg>